<svg xmlns="http://www.w3.org/2000/svg" width="128" height="32" viewBox="0 0 128 32" shape-rendering="crispEdges">
  <rect width="128" height="32" fill="transparent"/>
  <g transform="translate(0 0)">
    <rect x="10" y="7" width="2" height="4" fill="#f4f1dc"/>
    <rect x="20" y="7" width="2" height="4" fill="#f4f1dc"/>
    <rect x="8" y="11" width="16" height="11" fill="#f4f1dc"/>
    <rect x="10" y="14" width="3" height="2" fill="#11261f"/>
    <rect x="19" y="14" width="3" height="2" fill="#11261f"/>
    <rect x="14" y="18" width="4" height="1" fill="#e08e45"/>
    <rect x="10" y="22" width="2" height="4" fill="#f4f1dc"/>
    <rect x="20" y="22" width="2" height="4" fill="#f4f1dc"/>
  </g>
  <g transform="translate(32 0)">
    <rect x="10" y="7" width="2" height="4" fill="#f4f1dc"/>
    <rect x="20" y="7" width="2" height="4" fill="#f4f1dc"/>
    <rect x="8" y="11" width="16" height="11" fill="#f4f1dc"/>
    <rect x="10" y="15" width="3" height="1" fill="#11261f"/>
    <rect x="19" y="15" width="3" height="1" fill="#11261f"/>
    <rect x="14" y="18" width="4" height="1" fill="#e08e45"/>
    <rect x="10" y="22" width="2" height="4" fill="#f4f1dc"/>
    <rect x="20" y="22" width="2" height="4" fill="#f4f1dc"/>
  </g>
  <g transform="translate(64 0)">
    <rect x="10" y="7" width="2" height="4" fill="#f4f1dc"/>
    <rect x="20" y="7" width="2" height="4" fill="#f4f1dc"/>
    <rect x="8" y="11" width="16" height="11" fill="#f4f1dc"/>
    <rect x="10" y="14" width="3" height="2" fill="#11261f"/>
    <rect x="19" y="14" width="3" height="2" fill="#11261f"/>
    <rect x="14" y="18" width="4" height="1" fill="#e08e45"/>
    <rect x="10" y="22" width="2" height="4" fill="#f4f1dc"/>
    <rect x="20" y="22" width="2" height="4" fill="#f4f1dc"/>
  </g>
  <g transform="translate(96 0)">
    <rect x="10" y="7" width="2" height="4" fill="#f4f1dc"/>
    <rect x="20" y="7" width="2" height="4" fill="#f4f1dc"/>
    <rect x="8" y="11" width="16" height="11" fill="#f4f1dc"/>
    <rect x="10" y="15" width="3" height="1" fill="#11261f"/>
    <rect x="19" y="15" width="3" height="1" fill="#11261f"/>
    <rect x="14" y="18" width="4" height="1" fill="#e08e45"/>
    <rect x="10" y="22" width="2" height="4" fill="#f4f1dc"/>
    <rect x="20" y="22" width="2" height="4" fill="#f4f1dc"/>
  </g>
</svg>

