<svg xmlns="http://www.w3.org/2000/svg" width="128" height="32" viewBox="0 0 128 32" shape-rendering="crispEdges">
  <rect width="128" height="32" fill="transparent"/>
  <g transform="translate(0 0)">
    <rect x="10" y="4" width="2" height="5" fill="#f4f1dc"/>
    <rect x="20" y="4" width="2" height="5" fill="#f4f1dc"/>
    <rect x="8" y="9" width="16" height="12" fill="#f4f1dc"/>
    <rect x="10" y="11" width="3" height="3" fill="#11261f"/>
    <rect x="19" y="11" width="3" height="3" fill="#11261f"/>
    <rect x="14" y="16" width="4" height="2" fill="#4cd5b5"/>
    <rect x="8" y="21" width="3" height="5" fill="#f4f1dc"/>
    <rect x="21" y="21" width="3" height="5" fill="#f4f1dc"/>
  </g>
  <g transform="translate(32 0)">
    <rect x="10" y="5" width="2" height="4" fill="#f4f1dc"/>
    <rect x="20" y="5" width="2" height="4" fill="#f4f1dc"/>
    <rect x="8" y="9" width="16" height="12" fill="#f4f1dc"/>
    <rect x="10" y="11" width="3" height="3" fill="#11261f"/>
    <rect x="19" y="11" width="3" height="3" fill="#11261f"/>
    <rect x="14" y="16" width="4" height="2" fill="#4cd5b5"/>
    <rect x="9" y="22" width="3" height="4" fill="#f4f1dc"/>
    <rect x="20" y="20" width="3" height="6" fill="#f4f1dc"/>
  </g>
  <g transform="translate(64 0)">
    <rect x="10" y="4" width="2" height="5" fill="#f4f1dc"/>
    <rect x="20" y="4" width="2" height="5" fill="#f4f1dc"/>
    <rect x="8" y="9" width="16" height="12" fill="#f4f1dc"/>
    <rect x="10" y="12" width="3" height="2" fill="#11261f"/>
    <rect x="19" y="12" width="3" height="2" fill="#11261f"/>
    <rect x="14" y="16" width="4" height="2" fill="#4cd5b5"/>
    <rect x="8" y="20" width="3" height="6" fill="#f4f1dc"/>
    <rect x="21" y="22" width="3" height="4" fill="#f4f1dc"/>
  </g>
  <g transform="translate(96 0)">
    <rect x="10" y="5" width="2" height="4" fill="#f4f1dc"/>
    <rect x="20" y="5" width="2" height="4" fill="#f4f1dc"/>
    <rect x="8" y="9" width="16" height="12" fill="#f4f1dc"/>
    <rect x="10" y="11" width="3" height="3" fill="#11261f"/>
    <rect x="19" y="11" width="3" height="3" fill="#11261f"/>
    <rect x="14" y="16" width="4" height="2" fill="#4cd5b5"/>
    <rect x="9" y="21" width="3" height="5" fill="#f4f1dc"/>
    <rect x="20" y="21" width="3" height="5" fill="#f4f1dc"/>
  </g>
</svg>

